<svg xmlns="http://www.w3.org/2000/svg" x="0" y="0" viewBox="0 0 19 19" class="icon icon--SVG_19"><path d="M17 16.71c.01-.306-.143-1.91-4.108-3.5-.016-.003-1.492-.398-1.492-1.516v-.413c1.495-.982 2.6-2.853 2.6-4.8-.046-2.764-2.03-4.988-4.436-4.988h-.05c-1.183-.03-2.338.505-3.18 1.448C5.494 3.879 5.021 5.136 5 6.489c0 2.057.966 4.234 2.605 5.106l.002.001h-.002c-.08.222-.502 1.257-1.498 1.614C5.687 13.32 2 14.352 2 16.694V19h.998L3 16.694c0-1.34 2.426-2.27 3.402-2.529 1.445-.516 2.018-1.877 2.147-2.237.202.038.409.065.625.065.42 0 .835-.082 1.237-.223.06 1.819 2.14 2.385 2.17 2.388C15.866 15.48 16 16.693 16 16.694L16.002 19H17v-2.29zM6 6.497c.018-1.09.41-2.143 1.08-2.891.642-.72 1.476-1.114 2.355-1.114h.085c1.876-.046 3.443 1.768 3.48 3.996 0 2.231-1.931 4.504-3.826 4.504C7.214 10.993 6 8.655 6 6.498z"></path></svg>