<svg xmlns="http://www.w3.org/2000/svg" width="75" height="47" viewBox="0 0 67 42" fill="none"><rect x="0.5" y="0.5" width="66" height="41" rx="3.5" fill="white" stroke="white"></rect><path d="M32.3645 21.3089V26.1959H30.8125V14.1239H34.9255C35.9175 14.1029 36.8765 14.4789 37.5895 15.1689C38.3105 15.8179 38.7175 16.7469 38.7015 17.7159C38.7225 18.6919 38.3165 19.6279 37.5895 20.2789C36.8695 20.9649 35.9815 21.3079 34.9255 21.3059L32.3645 21.3089ZM32.3645 15.6109V19.8259H34.9645C35.5415 19.8439 36.0975 19.6169 36.4985 19.2009C37.3135 18.4089 37.3325 17.1059 36.5385 16.2909C36.5245 16.2769 36.5125 16.2629 36.4985 16.2509C36.1025 15.8269 35.5435 15.5949 34.9645 15.6109H32.3645ZM42.2765 17.6669C43.4235 17.6669 44.3275 17.9729 44.9915 18.5849C45.6545 19.1969 45.9855 20.0379 45.9855 21.1039V26.1949H44.5025V25.0489H44.4355C43.7935 25.9939 42.9385 26.4649 41.8725 26.4649C40.9625 26.4649 40.2015 26.1959 39.5885 25.6559C38.9935 25.1549 38.6565 24.4119 38.6705 23.6329C38.6705 22.7779 38.9945 22.0989 39.6395 21.5939C40.2855 21.0889 41.1475 20.8359 42.2275 20.8359C43.1475 20.8359 43.9075 21.0049 44.5025 21.3409V20.9859C44.5065 20.4549 44.2705 19.9519 43.8625 19.6139C43.4525 19.2449 42.9175 19.0419 42.3655 19.0489C41.4995 19.0489 40.8135 19.4149 40.3085 20.1449L38.9435 19.2849C39.6925 18.2059 40.8045 17.6669 42.2765 17.6669ZM40.2695 23.6679C40.2675 24.0689 40.4595 24.4459 40.7835 24.6799C41.1265 24.9489 41.5525 25.0929 41.9885 25.0849C42.6425 25.0829 43.2715 24.8229 43.7335 24.3599C44.2475 23.8759 44.5045 23.3099 44.5045 22.6569C44.0205 22.2719 43.3465 22.0779 42.4815 22.0779C41.8515 22.0779 41.3255 22.2289 40.9055 22.5339C40.4805 22.8429 40.2695 23.2179 40.2695 23.6679ZM54.5005 17.9369L49.3225 29.8389H47.7215L49.6425 25.6749L46.2365 17.9379H47.9215L50.3825 23.8719H50.4155L52.8095 17.9379H54.5005V17.9369Z" fill="#5F6368"></path><path d="M26.0965 20.2547C26.0965 19.7817 26.0575 19.3097 25.9765 18.8438H19.4355V21.5147H23.1815C23.0265 22.3767 22.5275 23.1387 21.7965 23.6227V25.3577H24.0325C25.3415 24.1508 26.0965 22.3657 26.0965 20.2547Z" fill="#4285F4"></path><path d="M19.4343 27.0328C21.3063 27.0328 22.8823 26.4188 24.0313 25.3578L21.7953 23.6228C21.1723 24.0448 20.3723 24.2858 19.4343 24.2858C17.6253 24.2858 16.0903 23.0668 15.5413 21.4238H13.2383V23.2108C14.4153 25.5548 16.8133 27.0328 19.4343 27.0328Z" fill="#34A853"></path><path d="M15.5417 21.4244C15.2517 20.5644 15.2517 19.6304 15.5417 18.7694V16.9824H13.2387C12.2537 18.9424 12.2537 21.2524 13.2387 23.2124L15.5417 21.4244Z" fill="#FBBC04"></path><path d="M19.4343 15.9066C20.4233 15.8906 21.3783 16.2636 22.0943 16.9466L24.0753 14.9676C22.8193 13.7886 21.1563 13.1416 19.4343 13.1606C16.8133 13.1606 14.4153 14.6406 13.2383 16.9816L15.5413 18.7686C16.0903 17.1266 17.6263 15.9066 19.4343 15.9066Z" fill="#EA4335"></path></svg>