<?xml version="1.0" encoding="UTF-8"?> <svg xmlns="http://www.w3.org/2000/svg" width="24" height="24" viewBox="0 0 24 24" fill="none"><g clip-path="url(#clip0_633_44803)"><path d="M17.3167 4.75H6.68333C5.61558 4.75 4.75 5.61558 4.75 6.68333V17.3167C4.75 18.3844 5.61558 19.25 6.68333 19.25H17.3167C18.3844 19.25 19.25 18.3844 19.25 17.3167V6.68333C19.25 5.61558 18.3844 4.75 17.3167 4.75Z" stroke="#151319" stroke-width="1.5" stroke-linecap="round" stroke-linejoin="round"></path><path d="M7.65039 10.55V16.3501C7.65039 16.6064 7.75224 16.8523 7.93352 17.0336C8.11481 17.2149 8.36068 17.3167 8.61706 17.3167C8.87343 17.3167 9.11931 17.2149 9.30059 17.0336C9.48188 16.8523 9.58372 16.6064 9.58372 16.3501V10.55H7.65039Z" stroke="#151319" stroke-width="1.5" stroke-linecap="round" stroke-linejoin="round"></path><path d="M10.4324 7.57848L9.583 10.55H7.64967L6.80029 7.57848C6.7672 7.46045 6.77988 7.33428 6.8358 7.2252C6.89171 7.11611 6.98675 7.03215 7.10189 6.99011C7.58555 6.80235 8.09773 6.6986 8.61633 6.68335C9.13494 6.6986 9.64712 6.80235 10.1308 6.99011C10.2459 7.03215 10.341 7.11611 10.3969 7.2252C10.4528 7.33428 10.4655 7.46045 10.4324 7.57848Z" stroke="#151319" stroke-width="1.5" stroke-linecap="round" stroke-linejoin="round"></path><path d="M12.4834 13.45H16.3501V15.3833C16.3501 15.6397 16.2482 15.8855 16.0669 16.0668C15.8856 16.2481 15.6398 16.35 15.3834 16.35H13.4501C13.1937 16.35 12.9478 16.2481 12.7665 16.0668C12.5852 15.8855 12.4834 15.6397 12.4834 15.3833V13.45Z" stroke="#151319" stroke-width="1.5" stroke-linecap="round" stroke-linejoin="round"></path><path d="M16.3501 10.55H12.4834V13.45H16.3501V10.55Z" stroke="#151319" stroke-width="1.5" stroke-linecap="round" stroke-linejoin="round"></path><path d="M13.4501 7.6499H15.3834C15.6398 7.6499 15.8856 7.75175 16.0669 7.93303C16.2482 8.11432 16.3501 8.36019 16.3501 8.61657V10.5499H12.4834V8.61657C12.4834 8.36019 12.5852 8.11432 12.7665 7.93303C12.9478 7.75175 13.1937 7.6499 13.4501 7.6499V7.6499Z" stroke="#151319" stroke-width="1.5" stroke-linecap="round" stroke-linejoin="round"></path></g><defs><clipPath id="clip0_633_44803"><rect width="16" height="16" fill="white" transform="translate(4 4)"></rect></clipPath></defs></svg> 