<?xml version="1.0" encoding="UTF-8"?> <svg xmlns="http://www.w3.org/2000/svg" width="24" height="24" viewBox="0 0 24 24" fill="none"><g clip-path="url(#clip0_633_44800)"><path d="M11.7663 19.0324C14.3496 19.0324 16.4438 16.9383 16.4438 14.355C16.4438 11.7717 14.3496 9.67749 11.7663 9.67749C9.18304 9.67749 7.08887 11.7717 7.08887 14.355C7.08887 16.9383 9.18304 19.0324 11.7663 19.0324Z" stroke="#151319" stroke-width="1.5" stroke-linecap="round" stroke-linejoin="round"></path><path d="M13.6375 6.87099C13.6375 6.37477 13.4404 5.89888 13.0895 5.548C12.7386 5.19712 12.2627 5 11.7665 5C11.2703 5 10.7944 5.19712 10.4435 5.548C10.0926 5.89888 9.89551 6.37477 9.89551 6.87099V8.27423H13.6375V6.87099Z" stroke="#151319" stroke-width="1.5" stroke-linecap="round" stroke-linejoin="round"></path><path d="M17.9958 10.7748C18.6884 10.427 18.8739 9.39649 18.4101 8.47307C17.9464 7.54965 17.0091 7.08302 16.3165 7.43081C15.6239 7.7786 15.4384 8.80913 15.9021 9.73255C16.3659 10.656 17.3032 11.1226 17.9958 10.7748Z" stroke="#151319" stroke-width="1.5" stroke-linecap="round" stroke-linejoin="round"></path><path d="M13.6367 6.87109C14.4799 6.89615 15.2888 7.21012 15.9281 7.76044" stroke="#151319" stroke-width="1.5" stroke-linecap="round" stroke-linejoin="round"></path><path d="M11.7666 8.27417V9.67741" stroke="#151319" stroke-width="1.5" stroke-linecap="round" stroke-linejoin="round"></path><path d="M7.30273 15.7583H16.2298" stroke="#151319" stroke-width="1.5" stroke-linecap="round" stroke-linejoin="round"></path><path d="M7.55648 7.33862H4.75" stroke="#151319" stroke-width="1.5" stroke-linecap="round" stroke-linejoin="round"></path><path d="M8.02433 5.93549L6.62109 5" stroke="#151319" stroke-width="1.5" stroke-linecap="round" stroke-linejoin="round"></path><path d="M8.02433 8.74194L6.62109 9.67744" stroke="#151319" stroke-width="1.5" stroke-linecap="round" stroke-linejoin="round"></path></g><defs><clipPath id="clip0_633_44800"><rect width="16" height="16" fill="white" transform="translate(4 4)"></rect></clipPath></defs></svg> 